<svg id="Layer_1" data-name="Layer 1" xmlns="http://www.w3.org/2000/svg" viewBox="0 0 1600 620"><defs><style>.cls-1{fill:#222b47;}</style></defs><title>daysheets_logo_dark</title><path class="cls-1" d="M492.6,395.56H450.7V275.84h39.64c21.68,0,39.31,3.56,52.9,22.33,7.77,10.84,11,23.94,11,37.21C554.24,374.69,531.75,395.56,492.6,395.56Zm1.94-92.86H481.28v66h13.1c20.87,0,29.28-13.42,29.28-32.84C523.66,316.77,514.93,302.7,494.54,302.7Z"/><path class="cls-1" d="M649.92,395.56l-5.83-17.31H602.51l-6.31,17.31H563.36l48-119.72h24.11l47.57,119.72Zm-26.21-82.51h-.49L610.93,354H636Z"/><path class="cls-1" d="M739.63,352v43.52H709.05V352l-35.76-76.2h33.17l17.8,48.05,18-48.05h32.85Z"/><path class="cls-1" d="M886.11,397.83c-24.11,0-43.2-12.46-43.2-38v-3.89h30.41c0,7.77,3.56,16.34,12.46,16.34a11.56,11.56,0,0,0,11.65-11.48c0-7.77-6.47-10.36-12.78-13.11-3.56-1.62-7.12-3.07-10.68-4.53-15.53-6.47-29.28-15.53-29.28-34.3,0-22.32,21.52-35.27,41.9-35.27,11.65,0,24.75,4.37,32.36,13.59,6.15,7.61,7.6,14.24,7.93,23.63H896.62c-1-6.64-3.23-11.65-11-11.65-5.34,0-10.52,3.72-10.52,9.38a8.88,8.88,0,0,0,1.14,5c2.91,4.85,18.6,11,23.62,13.26,15.85,7.28,28,15.53,28,34.3C927.85,386.18,909.73,397.83,886.11,397.83Z"/><path class="cls-1" d="M1025.32,395.56V347.67H986.17v47.89H955.59V275.84h30.58v45h39.15v-45h30.58V395.56Z"/><path class="cls-1" d="M1090.52,395.56V275.84H1162V302.7h-42.21v18.6h41.07v26.86h-41.07V368.7H1162v26.86Z"/><path class="cls-1" d="M1197.13,395.56V275.84h71.49V302.7h-42.21v18.6h41.08v26.86h-41.08V368.7h42.21v26.86Z"/><path class="cls-1" d="M1348.71,302.7v92.86h-30.58V302.7h-23.62V275.84h77.66V302.7Z"/><path class="cls-1" d="M1436.05,397.83c-24.11,0-43.2-12.46-43.2-38v-3.89h30.42c0,7.77,3.56,16.34,12.45,16.34a11.56,11.56,0,0,0,11.65-11.48c0-7.77-6.47-10.36-12.78-13.11-3.56-1.62-7.12-3.07-10.68-4.53-15.53-6.47-29.28-15.53-29.28-34.3,0-22.32,21.52-35.27,41.9-35.27,11.65,0,24.76,4.37,32.36,13.59,6.15,7.61,7.61,14.24,7.93,23.63h-30.26c-1-6.64-3.23-11.65-11-11.65-5.34,0-10.51,3.72-10.51,9.38a8.87,8.87,0,0,0,1.13,5c2.91,4.85,18.6,11,23.62,13.26,15.86,7.28,28,15.53,28,34.3C1477.79,386.18,1459.67,397.83,1436.05,397.83Z"/><polygon class="cls-1" points="244.66 343.73 257.94 343.73 251.3 325.42 244.66 343.73"/><polygon class="cls-1" points="178.38 343.73 191.65 343.73 185.01 325.42 178.38 343.73"/><polygon class="cls-1" points="310.95 343.73 324.23 343.73 317.59 325.42 310.95 343.73"/><path class="cls-1" d="M365.57,168.35H290.16l29.4-55.52a5,5,0,0,0-4.38-7.28H284.34a6.41,6.41,0,0,0-5.67,3.41l-27.43,51.79L223.81,109a6.41,6.41,0,0,0-5.67-3.41H187.33a5,5,0,0,0-4.39,7.29l29.58,55.51H137a14.82,14.82,0,0,0-14.82,14.82V499.63A14.82,14.82,0,0,0,137,514.45H365.57a14.82,14.82,0,0,0,14.82-14.82V183.17A14.82,14.82,0,0,0,365.57,168.35ZM227.32,196.11a9.21,9.21,0,0,0,8.13,4.89h31.86a9.22,9.22,0,0,0,8.15-4.91l3.52-6.64a12.21,12.21,0,0,1-3.06,24H226.68a12.21,12.21,0,0,1-2.93-24.07ZM333.88,371.76l-4.08-11H305.38l-4.09,11H267.6l-4.09-11H239.09l-4.09,11H201.31l-4.08-11H172.8l-4.08,11H147.81L174.68,302h20.66l22.82,59.21L241,302h20.66l22.81,59.21L307.26,302h20.66l26.87,69.75Z"/></svg>