<svg id="Layer_1" data-name="Layer 1" xmlns="http://www.w3.org/2000/svg" xmlns:xlink="http://www.w3.org/1999/xlink" viewBox="0 0 264 264"><defs><style>.cls-1{fill:none;}.cls-2{clip-path:url(#clip-path);}.cls-3{fill:url(#linear-gradient);}.cls-4{clip-path:url(#clip-path-2);}.cls-5{clip-path:url(#clip-path-3);}</style><clipPath id="clip-path"><path class="cls-1" d="M99.05,165.35H87.9a6,6,0,0,0-6,6V201.1a6,6,0,0,0,12,0v-7.81h5.15a14,14,0,0,0,0-27.94Zm0,15.94H93.9v-3.94h5.15a2,2,0,0,1,0,3.94Z"/></clipPath><linearGradient id="linear-gradient" x1="-667.11" y1="-4669" x2="-438.19" y2="-4669" gradientTransform="translate(684.65 4801)" gradientUnits="userSpaceOnUse"><stop offset="0" stop-color="#1c78e4"/><stop offset="1" stop-color="#222b47"/></linearGradient><clipPath id="clip-path-2"><path class="cls-1" d="M195.1,96.12a36.71,36.71,0,1,0-57.12,0,60.38,60.38,0,0,0-9.92,6.7,36.7,36.7,0,1,0-59.16,43.3,60.35,60.35,0,0,0-31.69,53c0,6.75,3.62,16.13,20.88,22.49,10.49,3.86,24.47,6,39.37,6s28.88-2.12,39.37-6c17.25-6.36,20.88-15.74,20.88-22.49a60.07,60.07,0,0,0-4.21-22.1c4.26.37,8.68.57,13.14.57,20.39,0,41.69-4,52.59-13.36,6.25-5.35,7.56-11.17,7.56-15.11A60.35,60.35,0,0,0,195.1,96.12ZM166.54,48.36A24.76,24.76,0,0,1,189.2,63.21,63.63,63.63,0,0,0,166,59a64.37,64.37,0,0,0-21.93,3.74A24.74,24.74,0,0,1,166.54,48.36Zm-69.08,50a24.74,24.74,0,0,1,22.65,14.85A63.53,63.53,0,0,0,97,109,64.37,64.37,0,0,0,75,112.74,24.74,24.74,0,0,1,97.46,98.36Zm0,117.28c-26.6,0-48.25-7.39-48.25-16.47a48.29,48.29,0,0,1,32.28-45.52A6,6,0,0,0,83,143.12a24.8,24.8,0,0,1-10-16.26C79.28,123.13,87.86,121,97,121c9.61,0,18.55,2.34,24.83,6.44a24.83,24.83,0,0,1-9.87,15.68,6,6,0,0,0,1.52,10.53,48.29,48.29,0,0,1,32.28,45.52C145.71,208.25,124.06,215.64,97.46,215.64Zm114-60.47c-10.4,8.9-39.47,12.94-64.81,9l-.16,0a60.18,60.18,0,0,0-20.43-18,36.67,36.67,0,0,0,7.1-31.76l.17-.14a47.85,47.85,0,0,1,17.28-10.57,6,6,0,0,0,1.52-10.53,24.8,24.8,0,0,1-10-16.26C148.36,73.13,156.94,71,166,71c9.61,0,18.55,2.34,24.83,6.44A24.83,24.83,0,0,1,181,93.12a6,6,0,0,0,1.52,10.53,48.29,48.29,0,0,1,32.28,45.52C214.79,149.94,214.79,152.28,211.42,155.17Z"/></clipPath><clipPath id="clip-path-3"><path class="cls-1" d="M183.54,117.87a6,6,0,0,0-6.56,1.39l-10.55,10.89L156.14,119.3a6,6,0,0,0-10.35,4.13V147a6,6,0,0,0,12,0v-8.55L162,143a6,6,0,0,0,4.32,1.88h0A6,6,0,0,0,170.7,143l4.59-4.74V147a6,6,0,0,0,12,0v-23.6A6,6,0,0,0,183.54,117.87Z"/></clipPath></defs><title>collaboration</title><g class="cls-2"><rect class="cls-3" x="17.54" y="17.54" width="228.92" height="228.92" transform="translate(264 0) rotate(90)"/></g><g class="cls-4"><rect class="cls-3" x="17.54" y="17.54" width="228.92" height="228.92" transform="translate(264 0) rotate(90)"/></g><g class="cls-5"><rect class="cls-3" x="17.54" y="17.54" width="228.92" height="228.92" transform="translate(264 0) rotate(90)"/></g></svg>