<svg id="Layer_1" data-name="Layer 1" xmlns="http://www.w3.org/2000/svg" xmlns:xlink="http://www.w3.org/1999/xlink" viewBox="0 0 264 264"><defs><style>.cls-1{fill:none;}.cls-2{clip-path:url(#clip-path);}.cls-3{fill:url(#linear-gradient);}.cls-4{clip-path:url(#clip-path-2);}</style><clipPath id="clip-path"><path class="cls-1" d="M53,186.78c-7.43,7.42-9.17,23.91-9.44,27.14a6,6,0,0,0,6,6.51h.39c1.95-.13,19.28-1.48,27.25-9.45A17.1,17.1,0,0,0,53,186.78Zm15.7,15.7c-2.21,2.21-7.16,3.87-12,4.89,1.06-5,2.72-10,4.81-12.11a5.11,5.11,0,0,1,7.22,7.22Z"/></clipPath><linearGradient id="linear-gradient" x1="-1017.86" y1="-5019.76" x2="-788.95" y2="-5019.76" gradientTransform="translate(1035.4 5151.76)" gradientUnits="userSpaceOnUse"><stop offset="0" stop-color="#1c78e4"/><stop offset="1" stop-color="#222b47"/></linearGradient><clipPath id="clip-path-2"><path class="cls-1" d="M218.75,45.36a6,6,0,0,0-4.54-1.78,106,106,0,0,0-74.16,35.3L104.3,119.1c-12.69-2.63-38.73-.4-53.83,26a6,6,0,0,0,4.63,9l24.74,2.38,9.58,9.59-7.9,7.9A6,6,0,0,0,90,182.44l7.91-7.91,9.59,9.59,2.37,24.73a6,6,0,0,0,3.22,4.76,6,6,0,0,0,2.76.67,6.06,6.06,0,0,0,3-.79c26.44-15.11,28.66-41.15,26-53.84l40.33-35.84a106.05,106.05,0,0,0,35.28-73.88A6,6,0,0,0,218.75,45.36Zm-124.42,85L81.65,144.59l-.21,0-14.89-1.43A37.62,37.62,0,0,1,94.33,130.33Zm26.5,67.07-1.43-14.88,0-.23,14.26-12.67A37.64,37.64,0,0,1,120.83,197.4Zm56.38-82.56L112.6,172.25,106.39,166,120,152.44a6,6,0,1,0-8.49-8.48l-13.6,13.6-6.21-6.21L149,86.85a90.3,90.3,0,0,1,7.25-7.26l28.1,28.1A91.14,91.14,0,0,1,177.21,114.84Zm14.66-16.62L165.75,72.1a94.09,94.09,0,0,1,42.16-16A94.11,94.11,0,0,1,191.87,98.22Z"/></clipPath></defs><title>execution</title><g class="cls-2"><rect class="cls-3" x="17.54" y="17.54" width="228.92" height="228.92" transform="translate(264 0) rotate(90)"/></g><g class="cls-4"><rect class="cls-3" x="17.54" y="17.54" width="228.92" height="228.92" transform="translate(264 0) rotate(90)"/></g></svg>