<svg id="Layer_1" data-name="Layer 1" xmlns="http://www.w3.org/2000/svg" xmlns:xlink="http://www.w3.org/1999/xlink" viewBox="0 0 264 264"><defs><style>.cls-1{fill:none;}.cls-2{clip-path:url(#clip-path);}.cls-3{fill:url(#linear-gradient);}</style><clipPath id="clip-path"><path class="cls-1" d="M218.86,55.85A19.84,19.84,0,0,0,208.2,45.17C187,36.33,168.13,53.8,155.8,67.72c-3.4,3.83-7,7.93-10.91,12.38-.16.15-.31.3-.46.47l-3.65,4.19L56.56,63.29a6,6,0,0,0-7.14,3.79l-6.07,17A6,6,0,0,0,45.52,91L101,130.37,86.48,147,61.21,135.58a6,6,0,0,0-7.45,2.12l-9.9,14.75A6,6,0,0,0,45,160.37L62,174.87a6,6,0,0,0,.29,8.18L81,201.72a6,6,0,0,0,8.17.29l14.49,17.06a6,6,0,0,0,4.58,2.12,5.93,5.93,0,0,0,3.34-1l14.76-9.9a6,6,0,0,0,2.12-7.46L117,177.37c5.69-5,11.35-10,16.57-14.49L173,218.5a6,6,0,0,0,6.91,2.18l17-6.08a6,6,0,0,0,3.79-7.13l-21.49-84.34c6.23-5.47,11.81-10.41,17-15C210.08,95.7,227.51,76.78,218.86,55.85Zm-162.68,28,2.7-7.56,73.06,18.62-23,26.4Zm.63,70.86,4.09-6.09,17.33,7.83L70,165.89Zm52.52,52.53L98,193.82l9.52-8.3,8,17.61Zm78.42-2.08-7.56,2.71L142.6,154.94l26.48-23.06Zm.46-106c-4,3.57-8.25,7.35-12.86,11.41a5.57,5.57,0,0,0-.56.43L85.22,189,74.83,178.59l.25-.27c.09-.1.16-.2.24-.3l16.43-18.83a5.64,5.64,0,0,0,1-.86c8-9,15.85-18.09,21.82-25a5.86,5.86,0,0,0,.82-1.23L147.1,95.77c.11-.11.23-.21.33-.33,6.48-7.44,12.16-13.91,17.35-19.77,15.72-17.73,28.06-23.91,38.81-19.43a7.8,7.8,0,0,1,4.18,4.19C212.2,71.15,206.17,83.09,188.21,99.16Z"/></clipPath><linearGradient id="linear-gradient" x1="-175.66" y1="-5160.45" x2="53.25" y2="-5160.45" gradientTransform="translate(193.2 5292.45)" gradientUnits="userSpaceOnUse"><stop offset="0" stop-color="#1c78e4"/><stop offset="1" stop-color="#222b47"/></linearGradient></defs><title>flights</title><g class="cls-2"><rect class="cls-3" x="17.54" y="17.54" width="228.92" height="228.92" transform="translate(264 0) rotate(90)"/></g></svg>