<svg id="Layer_1" data-name="Layer 1" xmlns="http://www.w3.org/2000/svg" xmlns:xlink="http://www.w3.org/1999/xlink" viewBox="0 0 264 264"><defs><style>.cls-1{fill:none;}.cls-2{clip-path:url(#clip-path);}.cls-3{fill:url(#linear-gradient);}.cls-4{clip-path:url(#clip-path-2);}.cls-5{clip-path:url(#clip-path-3);}</style><clipPath id="clip-path"><path class="cls-1" d="M194.56,54.2H182.08V38.87A6,6,0,0,0,174.9,33L68.26,54.31h0a6,6,0,0,0-1.68.61l-.42.25-.08,0-.39.29-.07.06-.31.28-.12.11a2.62,2.62,0,0,0-.22.25l-.17.18-.14.19-.21.28-.08.13c-.07.12-.15.24-.22.37l0,.07c-.08.15-.15.3-.22.45a.08.08,0,0,1,0,0c-.06.16-.12.33-.17.49a5.84,5.84,0,0,0-.27,1.77h0V225.13a6,6,0,0,0,6,6H194.56a6,6,0,0,0,6-6V60.2A6,6,0,0,0,194.56,54.2Zm-24.48,0H130l40.05-8Zm18.48,164.93H75.44V66.2H188.56Z"/></clipPath><linearGradient id="linear-gradient" x1="-1642.08" y1="-3694.03" x2="-1413.16" y2="-3694.03" gradientTransform="translate(1659.62 3826.03)" gradientUnits="userSpaceOnUse"><stop offset="0" stop-color="#1c78e4"/><stop offset="1" stop-color="#222b47"/></linearGradient><clipPath id="clip-path-2"><path class="cls-1" d="M132,162.91a40.13,40.13,0,1,0-40.12-40.13A40.17,40.17,0,0,0,132,162.91Zm-27.47-34.13h7.59a68.05,68.05,0,0,0,2.9,16.4A28.14,28.14,0,0,1,104.53,128.78Zm27.3-34.12h.34l0,0c4.13,5.06,6.74,12.75,7.56,22.07H124.23c.82-9.32,3.43-17,7.56-22.07Zm8,34.12c-.68,9.25-3.07,17-6.91,22.1-.31,0-.62,0-.94,0s-.63,0-.94,0c-3.84-5.13-6.23-12.85-6.9-22.1Zm9.13,16.4a68.05,68.05,0,0,0,2.9-16.4h7.59A28.14,28.14,0,0,1,149,145.18Zm10.49-28.4h-7.66A66.18,66.18,0,0,0,148.52,100,28.17,28.17,0,0,1,159.47,116.78Zm-44-16.74a66.18,66.18,0,0,0-3.29,16.74h-7.66A28.14,28.14,0,0,1,115.48,100Z"/></clipPath><clipPath id="clip-path-3"><path class="cls-1" d="M97.16,198.05h69.67a6,6,0,0,0,0-12H97.16a6,6,0,0,0,0,12Z"/></clipPath></defs><title>imigration</title><g class="cls-2"><rect class="cls-3" x="17.54" y="17.54" width="228.92" height="228.92" transform="translate(264 0) rotate(90)"/></g><g class="cls-4"><rect class="cls-3" x="17.54" y="17.54" width="228.92" height="228.92" transform="translate(264 0) rotate(90)"/></g><g class="cls-5"><rect class="cls-3" x="17.54" y="17.54" width="228.92" height="228.92" transform="translate(264 0) rotate(90)"/></g></svg>