<svg id="Layer_1" data-name="Layer 1" xmlns="http://www.w3.org/2000/svg" xmlns:xlink="http://www.w3.org/1999/xlink" viewBox="0 0 264 264"><defs><style>.cls-1{fill:none;}.cls-2{clip-path:url(#clip-path);}.cls-3{fill:url(#linear-gradient);}</style><clipPath id="clip-path"><path class="cls-1" d="M230,88.89a6,6,0,0,0-3.25-3.65L168.13,58.89a6,6,0,0,0-5.38.24c-6.55,3.65-18.33,5.92-30.75,5.92s-24.11-2.25-30.68-5.88A6,6,0,0,0,96,59L37.26,85.24A6,6,0,0,0,34,88.89a6,6,0,0,0,.54,4.87l19.2,32.63a6,6,0,0,0,7.38,2.53l15.73-6.23L74.7,199.46a6.06,6.06,0,0,0,1.7,4.36,6,6,0,0,0,4.3,1.81H183.35a6,6,0,0,0,6-6.21l-2.73-76.94,16.26,6.44a6,6,0,0,0,7.38-2.53l19.2-32.63A6,6,0,0,0,230,88.89ZM159.35,73.41c-4.66,8.76-16.5,14.66-27.35,14.66s-22.69-5.9-27.35-14.66A95.69,95.69,0,0,0,132,77.05,95.64,95.64,0,0,0,159.35,73.41Zm43.17,42.46-20-7.93a6,6,0,0,0-8.21,5.79l2.84,79.9H86.87l2.23-79.7a6,6,0,0,0-8.21-5.74l-19.41,7.68L48.29,93.45,91.91,73.91C96.55,88.75,113,100.07,132,100.07s35.5-11.36,40.11-26.23l43.61,19.6Z"/></clipPath><linearGradient id="linear-gradient" x1="-40.91" y1="-5996.71" x2="188.01" y2="-5996.71" gradientTransform="translate(58.45 6128.71)" gradientUnits="userSpaceOnUse"><stop offset="0" stop-color="#1c78e4"/><stop offset="1" stop-color="#222b47"/></linearGradient></defs><title>merch</title><g class="cls-2"><rect class="cls-3" x="17.54" y="17.54" width="228.92" height="228.92" transform="translate(264 0) rotate(90)"/></g></svg>