<svg id="Layer_1" data-name="Layer 1" xmlns="http://www.w3.org/2000/svg" xmlns:xlink="http://www.w3.org/1999/xlink" viewBox="0 0 264 264"><defs><style>.cls-1{fill:none;}.cls-2{clip-path:url(#clip-path);}.cls-3{fill:url(#linear-gradient);}</style><clipPath id="clip-path"><path class="cls-1" d="M207.55,114.81A24.39,24.39,0,0,0,188.74,106H162.07V79.23a25.69,25.69,0,0,0-25.66-25.65h-6.77a6,6,0,0,0-6,6V87.77l-14,18.21H98.28V99.34a6,6,0,0,0-6-6H53.05a6,6,0,0,0-6,6V206.42a6,6,0,0,0,6,6H92.28a6,6,0,0,0,6-6v-7.59l80.7,3.23,1,0a24.6,24.6,0,0,0,24.05-20l8.79-47.19A24.38,24.38,0,0,0,207.55,114.81ZM86.28,200.42H59.05V105.34H86.28ZM201,132.71l-8.79,47.2a12.54,12.54,0,0,1-12.73,10.16l-81.18-3.25V118h14.36a6,6,0,0,0,4.77-2.35l17-22.17a6,6,0,0,0,1.23-3.65V65.58h.77a13.67,13.67,0,0,1,13.66,13.65V112a6,6,0,0,0,6,6h32.67A12.45,12.45,0,0,1,201,132.71Z"/></clipPath><linearGradient id="linear-gradient" x1="-1992.83" y1="-4044.79" x2="-1763.92" y2="-4044.79" gradientTransform="translate(2010.37 4176.79)" gradientUnits="userSpaceOnUse"><stop offset="0" stop-color="#1c78e4"/><stop offset="1" stop-color="#222b47"/></linearGradient></defs><title>promoter_documentation</title><g class="cls-2"><rect class="cls-3" x="17.54" y="17.54" width="228.92" height="228.92" transform="translate(264 0) rotate(90)"/></g></svg>