<svg id="Layer_1" data-name="Layer 1" xmlns="http://www.w3.org/2000/svg" xmlns:xlink="http://www.w3.org/1999/xlink" viewBox="0 0 264 264"><defs><style>.cls-1{fill:none;}.cls-2{clip-path:url(#clip-path);}.cls-3{fill:url(#linear-gradient);}</style><clipPath id="clip-path"><path class="cls-1" d="M215.84,71.36H48.16a6,6,0,0,0-6,6V186.64a6,6,0,0,0,6,6H215.84a6,6,0,0,0,6-6V77.36A6,6,0,0,0,215.84,71.36Zm-161.68,21,40,40-40,40Zm78.08,61.1L62.17,83.36H202.3Zm-29.6-12.62L128,166.15a6,6,0,0,0,8.49,0l25.35-25.35,39.84,39.84H62.8Zm67.68-8.49,39.52-39.52v79.05Z"/></clipPath><linearGradient id="linear-gradient" x1="-780.06" y1="-3822.84" x2="-551.15" y2="-3822.84" gradientTransform="translate(797.61 3954.84)" gradientUnits="userSpaceOnUse"><stop offset="0" stop-color="#1c78e4"/><stop offset="1" stop-color="#222b47"/></linearGradient></defs><title>promoter_reach_out</title><g class="cls-2"><rect class="cls-3" x="17.54" y="17.54" width="228.92" height="228.92" transform="translate(264 0) rotate(90)"/></g></svg>