<svg id="Layer_1" data-name="Layer 1" xmlns="http://www.w3.org/2000/svg" xmlns:xlink="http://www.w3.org/1999/xlink" viewBox="0 0 264 264"><defs><style>.cls-1{fill:none;}.cls-2{clip-path:url(#clip-path);}.cls-3{fill:url(#linear-gradient);}</style><clipPath id="clip-path"><path class="cls-1" d="M209.42,196.59H187.31V93.12a6,6,0,0,0-6-6H150.84a6,6,0,0,0-6,6V196.59H124.67V152.34a6,6,0,0,0-6-6H88.2a6,6,0,0,0-6,6v44.25H60.58V61.41a6,6,0,0,0-12,0V202.59a6,6,0,0,0,6,6H209.42a6,6,0,0,0,0-12ZM156.84,99.12h18.47v97.47H156.84ZM94.2,158.34h18.47v38.25H94.2Z"/></clipPath><linearGradient id="linear-gradient" x1="-300.51" y1="-4302.4" x2="-71.59" y2="-4302.4" gradientTransform="translate(318.05 4434.4)" gradientUnits="userSpaceOnUse"><stop offset="0" stop-color="#1c78e4"/><stop offset="1" stop-color="#222b47"/></linearGradient></defs><title>strategy</title><g class="cls-2"><rect class="cls-3" x="17.54" y="17.54" width="228.92" height="228.92" transform="translate(264 0) rotate(90)"/></g></svg>