<svg id="Layer_1" data-name="Layer 1" xmlns="http://www.w3.org/2000/svg" xmlns:xlink="http://www.w3.org/1999/xlink" viewBox="0 0 264 264"><defs><style>.cls-1{fill:none;}.cls-2{clip-path:url(#clip-path);}.cls-3{fill:url(#linear-gradient);}.cls-4{clip-path:url(#clip-path-2);}</style><clipPath id="clip-path"><path class="cls-1" d="M90.76,226.3a6.17,6.17,0,0,1-4.32-1.77L39.61,177.29a6,6,0,0,1-.06-8.39,13.4,13.4,0,0,0-.06-18.73,6,6,0,0,1,0-8.43L141.67,39.6a6,6,0,0,1,8.43-.05A13.52,13.52,0,0,0,169,39.43a6,6,0,0,1,8.48,0l47.05,47.05a6,6,0,0,1,0,8.49,13.52,13.52,0,0,0-.12,18.93,6,6,0,0,1,0,8.43L122.26,224.46a6,6,0,0,1-8.43,0,13.53,13.53,0,0,0-18.86.06A6,6,0,0,1,90.76,226.3Zm-39-53.77,39.49,39.83a25.73,25.73,0,0,1,26.19-.08l94.75-94.75a25.66,25.66,0,0,1,.13-26.29L172.76,51.65a25.68,25.68,0,0,1-26.3.13L51.73,146.51A25.31,25.31,0,0,1,51.79,172.53Z"/></clipPath><linearGradient id="linear-gradient" x1="309.84" y1="-5645.96" x2="538.76" y2="-5645.96" gradientTransform="translate(-292.3 5777.96)" gradientUnits="userSpaceOnUse"><stop offset="0" stop-color="#1c78e4"/><stop offset="1" stop-color="#222b47"/></linearGradient><clipPath id="clip-path-2"><path class="cls-1" d="M111.17,200a6,6,0,0,1-4.24-1.76L65.75,157.07a6,6,0,0,1,0-8.49l82.83-82.83A6,6,0,0,1,152.83,64h0a6,6,0,0,1,4.24,1.76l41.18,41.18a6,6,0,0,1,0,8.49l-82.83,82.83A6,6,0,0,1,111.17,200Zm-32.7-47.18,32.7,32.69,74.35-74.35L152.83,78.48Z"/></clipPath></defs><title>ticketing</title><g class="cls-2"><rect class="cls-3" x="17.54" y="17.54" width="228.92" height="228.92" transform="translate(264 0) rotate(90)"/></g><g class="cls-4"><rect class="cls-3" x="17.54" y="17.54" width="228.92" height="228.92" transform="translate(264 0) rotate(90)"/></g></svg>