<svg id="Layer_1" data-name="Layer 1" xmlns="http://www.w3.org/2000/svg" xmlns:xlink="http://www.w3.org/1999/xlink" viewBox="0 0 264 264"><defs><style>.cls-1{fill:none;}.cls-2{clip-path:url(#clip-path);}.cls-3{fill:url(#linear-gradient);}.cls-4{clip-path:url(#clip-path-2);}.cls-5{clip-path:url(#clip-path-3);}</style><clipPath id="clip-path"><path class="cls-1" d="M202.86,41.1H73.6a6,6,0,0,0-6,6V62.05H61.14a6,6,0,0,0,0,12H67.6v13.6H61.14a6,6,0,0,0,0,12H67.6v13.6H61.14a6,6,0,1,0,0,12H67.6v13.6H61.14a6,6,0,0,0,0,12H67.6v13.6H61.14a6,6,0,1,0,0,12H67.6v13.6H61.14a6,6,0,1,0,0,12H67.6V216.9a6,6,0,0,0,6,6H202.86a6,6,0,0,0,6-6V47.1A6,6,0,0,0,202.86,41.1Zm-6,169.8H79.6v-8.85h5.94a6,6,0,1,0,0-12H79.6v-13.6h5.94a6,6,0,1,0,0-12H79.6v-13.6h5.94a6,6,0,0,0,0-12H79.6v-13.6h5.94a6,6,0,1,0,0-12H79.6V99.65h5.94a6,6,0,0,0,0-12H79.6V74.05h5.94a6,6,0,0,0,0-12H79.6V53.1H196.86Z"/></clipPath><linearGradient id="linear-gradient" x1="-1497.42" y1="-4540.2" x2="-1268.5" y2="-4540.2" gradientTransform="translate(1514.96 4672.2)" gradientUnits="userSpaceOnUse"><stop offset="0" stop-color="#1c78e4"/><stop offset="1" stop-color="#222b47"/></linearGradient><clipPath id="clip-path-2"><path class="cls-1" d="M111.76,88h53a6,6,0,0,0,0-12h-53a6,6,0,0,0,0,12Z"/></clipPath><clipPath id="clip-path-3"><path class="cls-1" d="M152.73,102h-29a6,6,0,0,0,0,12h29a6,6,0,0,0,0-12Z"/></clipPath></defs><title>tourbooks_apps</title><g class="cls-2"><rect class="cls-3" x="17.54" y="17.54" width="228.92" height="228.92" transform="translate(264 0) rotate(90)"/></g><g class="cls-4"><rect class="cls-3" x="17.54" y="17.54" width="228.92" height="228.92" transform="translate(264 0) rotate(90)"/></g><g class="cls-5"><rect class="cls-3" x="17.54" y="17.54" width="228.92" height="228.92" transform="translate(264 0) rotate(90)"/></g></svg>