<svg id="Layer_1" data-name="Layer 1" xmlns="http://www.w3.org/2000/svg" xmlns:xlink="http://www.w3.org/1999/xlink" viewBox="0 0 264 264"><defs><style>.cls-1{fill:none;}.cls-2{clip-path:url(#clip-path);}.cls-3{fill:url(#linear-gradient);}.cls-4{clip-path:url(#clip-path-2);}.cls-5{clip-path:url(#clip-path-3);}.cls-6{clip-path:url(#clip-path-4);}.cls-7{clip-path:url(#clip-path-5);}</style><clipPath id="clip-path"><path class="cls-1" d="M126.8,107.56a6,6,0,0,0-8.46.63l-19.85,23-5.5-5.5a6,6,0,1,0-8.48,8.48l10.07,10.07A6,6,0,0,0,98.82,146H99a6.06,6.06,0,0,0,4.33-2.08L127.43,116A6,6,0,0,0,126.8,107.56Z"/></clipPath><linearGradient id="linear-gradient" x1="-1146.67" y1="-4189.45" x2="-917.75" y2="-4189.45" gradientTransform="translate(1164.21 4321.45)" gradientUnits="userSpaceOnUse"><stop offset="0" stop-color="#1c78e4"/><stop offset="1" stop-color="#222b47"/></linearGradient><clipPath id="clip-path-2"><path class="cls-1" d="M139.54,136.74h0l33.58,0a6,6,0,1,0,0-12h0l-33.58,0a6,6,0,0,0,0,12Z"/></clipPath><clipPath id="clip-path-3"><path class="cls-1" d="M126.8,160.85a6,6,0,0,0-8.46.63l-19.85,23L93,179a6,6,0,0,0-8.48,8.49l10.07,10.07a6,6,0,0,0,4.24,1.76H99a6,6,0,0,0,4.33-2.08l24.06-27.93A6,6,0,0,0,126.8,160.85Z"/></clipPath><clipPath id="clip-path-4"><path class="cls-1" d="M173.19,180.33h0l-33.58,0a6,6,0,1,0,0,12h0l33.58,0a6,6,0,0,0,0-12Z"/></clipPath><clipPath id="clip-path-5"><path class="cls-1" d="M200.75,54.16H159a27.72,27.72,0,0,0-54.08,0H63.25a6,6,0,0,0-6,6v165.3a6,6,0,0,0,6,6h137.5a6,6,0,0,0,6-6V60.16A6,6,0,0,0,200.75,54.16Zm-90.46,12a6,6,0,0,0,6-6,15.71,15.71,0,0,1,31.42,0,6,6,0,0,0,6,6h16.34v11H94v-11Zm84.46,153.3H69.25V66.16H82v17a6,6,0,0,0,6,6h88.1a6,6,0,0,0,6-6v-17h12.7Z"/></clipPath></defs><title>tracking_progress</title><g class="cls-2"><rect class="cls-3" x="17.54" y="17.54" width="228.92" height="228.92" transform="translate(264 0) rotate(90)"/></g><g class="cls-4"><rect class="cls-3" x="17.54" y="17.54" width="228.92" height="228.92" transform="translate(264 0) rotate(90)"/></g><g class="cls-5"><rect class="cls-3" x="17.54" y="17.54" width="228.92" height="228.92" transform="translate(264 0) rotate(90)"/></g><g class="cls-6"><rect class="cls-3" x="17.54" y="17.54" width="228.92" height="228.92" transform="translate(264 0) rotate(90)"/></g><g class="cls-7"><rect class="cls-3" x="17.54" y="17.54" width="228.92" height="228.92" transform="translate(264 0) rotate(90)"/></g></svg>