<svg id="Layer_1" data-name="Layer 1" xmlns="http://www.w3.org/2000/svg" xmlns:xlink="http://www.w3.org/1999/xlink" viewBox="0 0 264 264"><defs><style>.cls-1{fill:none;}.cls-2{clip-path:url(#clip-path);}.cls-3{fill:url(#linear-gradient);}</style><clipPath id="clip-path"><path class="cls-1" d="M194.76,163.5H150.22c0-.07,0-.14,0-.21l-.06-15.16a95.22,95.22,0,0,1,4.54-29.44l4.91-15.34a107.14,107.14,0,0,0,5.1-33.15v-4A30.64,30.64,0,0,0,134,35.68h-.13l-4.12,0A30.61,30.61,0,0,0,99.28,66.48v4a107.3,107.3,0,0,0,5.37,33.1l5,15.31a95.39,95.39,0,0,1,4.76,29.4l.06,15.16v0H69.24a8,8,0,0,0-8,8v28.65a8,8,0,0,0,8,8h3.51v14.14a6,6,0,0,0,6,6h106.5a6,6,0,0,0,6-6V208.18h3.51a8,8,0,0,0,8-8V171.52A8,8,0,0,0,194.76,163.5Zm-68.31-15.24a107.35,107.35,0,0,0-5.36-33.11l-5-15.3a95.12,95.12,0,0,1-4.77-29.41v-4a18.62,18.62,0,0,1,18.6-18.7l4.13,0h.07a18.64,18.64,0,0,1,18.63,18.56v4a95.21,95.21,0,0,1-4.53,29.44L143.28,115a107.13,107.13,0,0,0-5.11,33.14l.06,15.15v.17H126.5a.28.28,0,0,0,0-.09ZM73.23,175.5H190.77v20.68H73.23Zm106,40.82H84.75v-8.14h94.5Z"/></clipPath><linearGradient id="linear-gradient" x1="-1275.48" y1="-3327.43" x2="-1046.56" y2="-3327.43" gradientTransform="translate(1293.02 3459.43)" gradientUnits="userSpaceOnUse"><stop offset="0" stop-color="#1c78e4"/><stop offset="1" stop-color="#222b47"/></linearGradient></defs><title>visas</title><g class="cls-2"><rect class="cls-3" x="17.54" y="17.54" width="228.92" height="228.92" transform="translate(264 0) rotate(90)"/></g></svg>